REM DIRINDEX 1\2,1\3,1\4
REM DIRNAME cjc153,folder01,folder02,folder03
TITLE ""
FILE "Track03.mp3" MP3
  TRACK 01 AUDIO
    TITLE "0:"
    INDEX 01 00:00:00
  TRACK 02 AUDIO
    TITLE "4:cjc153_0115"
    INDEX 01 00:00:05
  TRACK 03 AUDIO
    TITLE "0:"
    INDEX 01 00:01:46
  TRACK 04 AUDIO
    TITLE "2:cjc153_0116"
    INDEX 01 00:02:24
  TRACK 05 AUDIO
    TITLE "0:"
    INDEX 01 00:03:23
  TRACK 06 AUDIO
    TITLE "3:cjc153_0117"
    INDEX 01 00:03:49
  TRACK 07 AUDIO
    TITLE "0:"
    INDEX 01 00:04:52
  TRACK 08 AUDIO
    TITLE "2:cjc153_0118"
    INDEX 01 00:05:16
  TRACK 09 AUDIO
    TITLE "0:"
    INDEX 01 00:06:31
  TRACK 10 AUDIO
    TITLE "3:cjc153_0119"
    INDEX 01 00:06:57
  TRACK 11 AUDIO
    TITLE "0:"
    INDEX 01 00:07:72
  TRACK 12 AUDIO
    TITLE "2:cjc153_0120"
    INDEX 01 00:08:36
  TRACK 13 AUDIO
    TITLE "0:"
    INDEX 01 00:09:34
  TRACK 14 AUDIO
    TITLE "3:cjc153_0121"
    INDEX 01 00:09:59
  TRACK 15 AUDIO
    TITLE "0:"
    INDEX 01 00:10:63
  TRACK 16 AUDIO
    TITLE "2:cjc153_0122"
    INDEX 01 00:11:27
  TRACK 17 AUDIO
    TITLE "0:"
    INDEX 01 00:12:20
  TRACK 18 AUDIO
    TITLE "3:cjc153_0123"
    INDEX 01 00:12:44
  TRACK 19 AUDIO
    TITLE "0:"
    INDEX 01 00:13:39
  TRACK 20 AUDIO
    TITLE "2:cjc153_0124"
    INDEX 01 00:14:02
  TRACK 21 AUDIO
    TITLE "0:"
    INDEX 01 00:15:07
  TRACK 22 AUDIO
    TITLE "3:cjc153_0125"
    INDEX 01 00:15:32
  TRACK 23 AUDIO
    TITLE "0:"
    INDEX 01 00:16:40
  TRACK 24 AUDIO
    TITLE "2:cjc153_0126"
    INDEX 01 00:17:02
  TRACK 25 AUDIO
    TITLE "0:"
    INDEX 01 00:17:74
  TRACK 26 AUDIO
    TITLE "3:cjc153_0127"
    INDEX 01 00:18:25
  TRACK 27 AUDIO
    TITLE "0:"
    INDEX 01 00:19:28
  TRACK 28 AUDIO
    TITLE "2:cjc153_0128"
    INDEX 01 00:19:65
  TRACK 29 AUDIO
    TITLE "0:"
    INDEX 01 00:20:63
  TRACK 30 AUDIO
    TITLE "3:cjc153_0129"
    INDEX 01 00:21:15
  TRACK 31 AUDIO
    TITLE "0:"
    INDEX 01 00:22:19
  TRACK 32 AUDIO
    TITLE "2:cjc153_0130"
    INDEX 01 00:22:60
  TRACK 33 AUDIO
    TITLE "0:"
    INDEX 01 00:23:59
  TRACK 34 AUDIO
    TITLE "3:cjc153_0131"
    INDEX 01 00:24:10
  TRACK 35 AUDIO
    TITLE "0:"
    INDEX 01 00:25:13
  TRACK 36 AUDIO
    TITLE "2:cjc153_0132"
    INDEX 01 00:25:50
  TRACK 37 AUDIO
    TITLE "0:"
    INDEX 01 00:26:40
  TRACK 38 AUDIO
    TITLE "3:cjc153_0133"
    INDEX 01 00:26:67
  TRACK 39 AUDIO
    TITLE "0:"
    INDEX 01 00:27:61
  TRACK 40 AUDIO
    TITLE "2:cjc153_0134"
    INDEX 01 00:28:27
  TRACK 41 AUDIO
    TITLE "0:"
    INDEX 01 00:29:25
  TRACK 42 AUDIO
    TITLE "3:cjc153_0135"
    INDEX 01 00:29:52
  TRACK 43 AUDIO
    TITLE "0:"
    INDEX 01 00:30:55
  TRACK 44 AUDIO
    TITLE "2:cjc153_0136"
    INDEX 01 00:31:18
  TRACK 45 AUDIO
    TITLE "0:"
    INDEX 01 00:32:11
  TRACK 46 AUDIO
    TITLE "3:cjc153_0137"
    INDEX 01 00:32:37
  TRACK 47 AUDIO
    TITLE "0:"
    INDEX 01 00:33:40
  TRACK 48 AUDIO
    TITLE "2:cjc153_0138"
    INDEX 01 00:34:04
  TRACK 49 AUDIO
    TITLE "0:"
    INDEX 01 00:35:00
  TRACK 50 AUDIO
    TITLE "3:cjc153_0139"
    INDEX 01 00:35:29
  TRACK 51 AUDIO
    TITLE "0:"
    INDEX 01 00:36:25
  TRACK 52 AUDIO
    TITLE "2:cjc153_0140"
    INDEX 01 00:36:62
  TRACK 53 AUDIO
    TITLE "0:"
    INDEX 01 00:37:73
  TRACK 54 AUDIO
    TITLE "3:cjc153_0141"
    INDEX 01 00:38:20
  TRACK 55 AUDIO
    TITLE "0:"
    INDEX 01 00:39:37
  TRACK 56 AUDIO
    TITLE "2:cjc153_0142"
    INDEX 01 00:39:70
  TRACK 57 AUDIO
    TITLE "0:"
    INDEX 01 00:41:02
  TRACK 58 AUDIO
    TITLE "3:cjc153_0143"
    INDEX 01 00:41:30
  TRACK 59 AUDIO
    TITLE "0:"
    INDEX 01 00:42:39
  TRACK 60 AUDIO
    TITLE "2:cjc153_0144"
    INDEX 01 00:43:03
  TRACK 61 AUDIO
    TITLE "0:"
    INDEX 01 00:44:14
  TRACK 62 AUDIO
    TITLE "3:cjc153_0145"
    INDEX 01 00:44:40
  TRACK 63 AUDIO
    TITLE "0:"
    INDEX 01 00:45:57
  TRACK 64 AUDIO
    TITLE "2:cjc153_0146"
    INDEX 01 00:46:21
  TRACK 65 AUDIO
    TITLE "0:"
    INDEX 01 00:47:30
  TRACK 66 AUDIO
    TITLE "3:cjc153_0147"
    INDEX 01 00:47:54
  TRACK 67 AUDIO
    TITLE "0:"
    INDEX 01 00:48:67
